{"title":"Love And Other Drugs TS XviD Feel-Free","uid":6098127,"size":1130603913,"categoryP":"video","categoryS":"movies","magnet":"?xt=urn:btih:d27a265565aa46deb51ff1f1e5ad34c3accbf38b&amp;dn=Love+And+Other+Drugs+TS+XviD+Feel-Free&amp;tr=udp%3A%2F%2Ftracker.openbittorrent.com%3A80&amp;tr=udp%3A%2F%2Fopen.demonii.com%3A1337&amp;tr=udp%3A%2F%2Ftracker.coppersurfer.tk%3A6969&amp;tr=udp%3A%2F%2Fexodus.desync.com%3A6969","seeders":0,"leechers":1,"uploader":".BONE.","files":10,"time":1294856809,"description":"\nGenre:Comedy | Romance\nLanguage:English\n &lt;a href=&quot;\nhttp://www.imdb.com/title/tt0758752/&quot; rel=&quot;nofollow&quot; target=&quot;_NEW&quot;&gt;\nhttp://www.imdb.com/title/tt0758752/&lt;/a&gt;\n\nSource:Serenity/ImagineThx.\n\n\nFree.avi\nFormat : AVI\nFormat/Info : Audio Video Interleave\nFile size : 1.05 GiB\nDuration : 1h 47mn\nOverall bit rate : 1 404 Kbps\n\n\nVideo\nCodec ID/Hint : XviD\nDuration : 1h 47mn\nBit rate : 1 267 Kbps\nWidth : 720 pixels\nHeight : 384 pixels\nDisplay aspect ratio : 1.875\nFrame rate : 25.000 fps\nColor space : YUV\nChroma subsampling : 4:2:0\nBit depth : 8 bits\nScan type : Progressive\nBits/(Pixel*Frame) : 0.183\nStream size : 970 MiB (90%)\nWriting library : XviD 1.2.1 (UTC 2008-12-04)\n\nAudio\nID : 1\nFormat : MPEG Audio\nFormat version : Version 1\nFormat profile : Layer 3\nMode : Joint stereo\nMode extension : MS Stereo\nCodec ID : 55\nCodec ID/Hint : MP3\nDuration : 1h 47mn\nBit rate mode : Constant\nBit rate : 128 Kbps\nChannel(s) : 2 channels\nSampling rate : 44.1 KHz\nStream size : 98.0 MiB (9%)\nAlignment : Split accross interleaves\nInterleave, duration : 40 ms (1.00 video frame)\nInterleave, preload duration : 500 ms\n\n\nPlot:\nMaggie (Hathaway) is an alluring free spirit who won't let anyone - or anything - tie her down. But she meets her match in Jamie (Gyllenhaal)\n","torrent":{"xt":"urn:btih:d27a265565aa46deb51ff1f1e5ad34c3accbf38b","amp;dn":"Love+And+Other+Drugs+TS+XviD+Feel-Free","amp;tr":["udp%3A%2F%2Ftracker.openbittorrent.com%3A80","udp%3A%2F%2Fopen.demonii.com%3A1337","udp%3A%2F%2Ftracker.coppersurfer.tk%3A6969","udp%3A%2F%2Fexodus.desync.com%3A6969"],"infoHash":"d27a265565aa46deb51ff1f1e5ad34c3accbf38b","infoHashBuffer":{"type":"Buffer","data":[210,122,38,85,101,170,70,222,181,31,241,241,229,173,52,195,172,203,243,139]},"announce":[],"urlList":[]}}